<svg xmlns="http://www.w3.org/2000/svg" viewBox="0 0 64 64" width="64" height="64">
  <rect width="64" height="64" fill="#1a5c2a"/>
  <polygon points="32,8 44,24 38,24 48,40 40,40 52,56 12,56 24,40 16,40 26,24 20,24" fill="#2ecc71"/>
  <rect x="28" y="56" width="8" height="4" fill="#6b3410"/>
  <circle cx="26" cy="30" r="2" fill="#e74c3c"/>
  <circle cx="38" cy="36" r="2" fill="#f1c40f"/>
  <circle cx="32" cy="46" r="2" fill="#e74c3c"/>
  <circle cx="22" cy="48" r="2" fill="#f1c40f"/>
  <circle cx="42" cy="48" r="2" fill="#3498db"/>
  <polygon points="32,4 34,9 39,9 35,12 37,17 32,14 27,17 29,12 25,9 30,9" fill="#f1c40f"/>
</svg>
